<svg preserveAspectRatio="none" overflow="visible" style="display: block;" width="26.6667" height="26.6667" viewBox="0 0 26.6667 26.6667" fill="none" xmlns="http://www.w3.org/2000/svg">
<g id="Container">
<path id="Icon" d="M13.3333 26.6667C11.4889 26.6667 9.75556 26.3167 8.13333 25.6167C6.51111 24.9167 5.1 23.9667 3.9 22.7667C2.7 21.5667 1.75 20.1556 1.05 18.5333C0.35 16.9111 0 15.1778 0 13.3333C0 11.4889 0.35 9.75556 1.05 8.13333C1.75 6.51111 2.7 5.1 3.9 3.9C5.1 2.7 6.51111 1.75 8.13333 1.05C9.75556 0.35 11.4889 0 13.3333 0C15.1778 0 16.9111 0.35 18.5333 1.05C20.1556 1.75 21.5667 2.7 22.7667 3.9C23.9667 5.1 24.9167 6.51111 25.6167 8.13333C26.3167 9.75556 26.6667 11.4889 26.6667 13.3333C26.6667 15.1778 26.3167 16.9111 25.6167 18.5333C24.9167 20.1556 23.9667 21.5667 22.7667 22.7667C21.5667 23.9667 20.1556 24.9167 18.5333 25.6167C16.9111 26.3167 15.1778 26.6667 13.3333 26.6667V26.6667M12 23.9333V21.3333C11.2667 21.3333 10.6389 21.0722 10.1167 20.55C9.59444 20.0278 9.33333 19.4 9.33333 18.6667V17.3333L2.93333 10.9333C2.86667 11.3333 2.80556 11.7333 2.75 12.1333C2.69444 12.5333 2.66667 12.9333 2.66667 13.3333C2.66667 16.0222 3.55 18.3778 5.31667 20.4C7.08333 22.4222 9.31111 23.6 12 23.9333V23.9333M21.2 20.5333C22.1111 19.5333 22.8056 18.4167 23.2833 17.1833C23.7611 15.95 24 14.6667 24 13.3333C24 11.1556 23.3944 9.16667 22.1833 7.36667C20.9722 5.56667 19.3556 4.26667 17.3333 3.46667V4C17.3333 4.73333 17.0722 5.36111 16.55 5.88333C16.0278 6.40556 15.4 6.66667 14.6667 6.66667H12V9.33333C12 9.71111 11.8722 10.0278 11.6167 10.2833C11.3611 10.5389 11.0444 10.6667 10.6667 10.6667H8V13.3333H16C16.3778 13.3333 16.6944 13.4611 16.95 13.7167C17.2056 13.9722 17.3333 14.2889 17.3333 14.6667V18.6667H18.6667C19.2444 18.6667 19.7667 18.8389 20.2333 19.1833C20.7 19.5278 21.0222 19.9778 21.2 20.5333V20.5333" fill="#002046"/>
</g>
</svg>
